<svg width="1024" height="1024" viewBox="0 0 1024 1024" fill="none" xmlns="http://www.w3.org/2000/svg">
  <rect x="96" y="96" width="832" height="832" rx="208" fill="#133B5C"/>
  <path d="M344 248C344 230.327 358.327 216 376 216H590L712 338V744C712 761.673 697.673 776 680 776H376C358.327 776 344 761.673 344 744V248Z" fill="#F8FAFC"/>
  <path d="M590 216V306C590 323.673 604.327 338 622 338H712L590 216Z" fill="#CFE3EE"/>
  <rect x="424" y="394" width="144" height="34" rx="17" fill="#2A88A8"/>
  <rect x="424" y="620" width="188" height="34" rx="17" fill="#2A88A8"/>
  <path d="M470 548C456.745 548 446 537.255 446 524C446 510.745 456.745 500 470 500H572.059L550.686 478.627C541.314 469.255 541.314 454.059 550.686 444.686C560.059 435.314 575.255 435.314 584.627 444.686L647.941 508C657.314 517.373 657.314 532.569 647.941 541.941L584.627 605.255C575.255 614.627 560.059 614.627 550.686 605.255C541.314 595.882 541.314 580.686 550.686 571.314L572.059 550H470V548Z" fill="#F2A63B"/>
</svg>
